<?xml version="1.0" encoding="UTF-8" standalone="no"?>
<svg
   xmlns:dc="http://purl.org/dc/elements/1.1/"
   xmlns:cc="http://creativecommons.org/ns#"
   xmlns:rdf="http://www.w3.org/1999/02/22-rdf-syntax-ns#"
   xmlns:svg="http://www.w3.org/2000/svg"
   xmlns="http://www.w3.org/2000/svg"
   height="553.11914"
   width="543.50867"
   xml:space="preserve"
   y="0px"
   x="0px"
   id=""
   version="1.1"><metadata
   id="metadata3731"><rdf:RDF><cc:Work
       rdf:about=""><dc:format>image/svg+xml</dc:format><dc:type
         rdf:resource="http://purl.org/dc/dcmitype/StillImage" /><dc:title></dc:title></cc:Work></rdf:RDF></metadata><defs
   id="defs3729" />

   <g id="logo">
      <rect
      style="fill:#ffffff"
      y="67.344673"
      x="60.984653"
      height="405.86353"
      width="428.99564"
      id="rect3733" />
      <g 
      transform="matrix(0.1,0,0,-0.1,0.00865651,553.61916)">
         <path
         id="path3723"
         d="M 713,5529 C 486,5502 326,5428 195,5289 122,5212 102,5184 61,5103 -5,4975 0,5158 0,2770 0,382 -5,565 61,437 102,356 122,328 195,251 264,177 375,101 458,69 489,58 558,38 610,26 L 705,5 h 2005 2005 l 95,21 c 129,29 196,56 282,113 70,46 170,142 215,207 39,55 90,168 109,239 18,67 19,151 19,2185 0,2034 -1,2118 -19,2185 -19,71 -70,184 -109,239 -45,65 -145,161 -215,207 -85,56 -152,83 -277,112 -90,21 -93,21 -2060,23 -1084,1 -2002,-2 -2042,-7 z M 3615,3821 c 50,-11 128,-32 174,-46 87,-28 259,-100 275,-115 9,-9 -233,-490 -246,-490 -5,0 -29,15 -55,34 -110,78 -222,117 -336,118 -90,0 -140,-13 -199,-52 -56,-37 -78,-80 -78,-152 0,-107 70,-160 312,-237 290,-92 415,-157 531,-276 132,-134 186,-300 174,-535 -12,-233 -82,-389 -241,-537 -89,-83 -232,-160 -361,-193 -239,-62 -547,-47 -795,37 -148,50 -385,180 -378,207 7,25 260,496 267,496 4,0 16,-9 27,-21 34,-38 188,-135 265,-166 101,-42 182,-57 287,-51 146,9 238,72 261,179 18,82 -3,144 -65,199 -48,42 -102,66 -344,152 -257,92 -335,133 -431,228 -129,127 -173,248 -171,470 3,416 256,706 677,773 72,12 361,-2 450,-22 z M 1990,2580 V 1370 h -315 -315 v 1203 c 0,662 3,1207 7,1210 3,4 145,7 315,7 h 308 z M 987,1853 c 89,-42 96,-157 13,-207 -77,-45 -180,15 -180,106 0,35 33,82 71,101 43,21 53,21 96,0 z m 3538,3 c 64,-27 93,-108 59,-166 -62,-104 -224,-60 -224,62 0,35 33,82 71,101 42,20 51,21 94,3 z" />
      </g>
   </g>
</svg>